<?xml version="1.0" encoding="UTF-8" standalone="no"?><!DOCTYPE svg PUBLIC "-//W3C//DTD SVG 1.1//EN" "http://www.w3.org/Graphics/SVG/1.1/DTD/svg11.dtd"><svg width="460px" height="18px" version="1.1" xmlns="http://www.w3.org/2000/svg" xmlns:xlink="http://www.w3.org/1999/xlink" xml:space="preserve" style="fill-rule:evenodd;clip-rule:evenodd;stroke-linejoin:round;stroke-miterlimit:10;"><rect id="techhire-assets-techhire-wavy" x="0.051" y="-0.48" width="460" height="18" style="fill:none;"/><clipPath id="_clip1"><rect x="0.051" y="-0.48" width="460" height="18"/></clipPath><g clip-path="url(#_clip1)"><path d="M0.051,2.428C3.328,2.426 6.604,3.373 9.45,5.27C12.581,7.358 16.068,9.682 19.199,11.77C24.884,15.56 32.291,15.56 37.976,11.77C41.107,9.682 44.594,7.358 47.725,5.27C50.686,3.296 54.113,2.351 57.522,2.433L57.579,2.428C60.855,2.426 64.131,3.373 66.977,5.27C70.108,7.358 73.595,9.682 76.726,11.77C82.412,15.56 89.818,15.56 95.503,11.77C98.634,9.682 102.122,7.358 105.253,5.27C108.213,3.296 111.641,2.351 115.049,2.433L115.049,2.428C118.325,2.426 121.602,3.373 124.447,5.27C127.578,7.358 131.065,9.682 134.196,11.77C139.882,15.56 147.288,15.56 152.974,11.77C156.104,9.682 159.592,7.358 162.723,5.27C165.684,3.296 169.111,2.351 172.519,2.433L172.576,2.428C175.852,2.426 179.128,3.373 181.974,5.27C185.105,7.358 188.593,9.682 191.724,11.77C197.409,15.56 204.816,15.56 210.501,11.77C213.632,9.682 217.12,7.358 220.25,5.27C223.211,3.296 226.638,2.351 230.047,2.433L230.056,2.428C233.332,2.426 236.609,3.373 239.455,5.27C242.586,7.358 246.073,9.682 249.204,11.77C254.89,15.56 262.296,15.56 267.982,11.77C271.112,9.682 274.599,7.358 277.731,5.27C280.692,3.296 284.119,2.351 287.526,2.433L287.584,2.428C290.86,2.426 294.136,3.373 296.982,5.27C300.113,7.358 303.601,9.682 306.732,11.77C312.417,15.56 319.824,15.56 325.508,11.77C328.64,9.682 332.127,7.358 335.257,5.27C338.218,3.296 341.646,2.351 345.054,2.433L345.054,2.428C348.33,2.426 351.606,3.373 354.452,5.27C357.583,7.358 361.071,9.682 364.202,11.77C369.887,15.56 377.294,15.56 382.979,11.77C386.11,9.682 389.596,7.358 392.728,5.27C395.689,3.296 399.116,2.351 402.525,2.433L402.581,2.428C405.857,2.426 409.134,3.373 411.98,5.27C415.11,7.358 418.598,9.682 421.729,11.77C427.414,15.56 434.821,15.56 440.505,11.77C443.637,9.682 447.124,7.358 450.256,5.27C453.217,3.296 456.644,2.351 460.051,2.433" style="fill:none;stroke:#0e6a56;stroke-width:4px;"/></g></svg>